<svg xmlns="http://www.w3.org/2000/svg" width="24" height="24" viewBox="0 0 16 16"><path fill="gray" fill-rule="nonzero" stroke="#FFF" stroke-linecap="round" stroke-linejoin="round" stroke-miterlimit="4" stroke-width=".125" d="M8,16c7-4,7-4,7-14-3,0-4,0-7-2m0,16c-7-4-7-4-7-14,3,0,4,0,7-2"/><path style="color:#000" fill="#FFF" d="m9.5001,4.9981c-1.3748,0-2.5,1.1252-2.5,2.5s1.1252,2.5,2.5,2.5,2.5-1.1252,2.5-2.5-1.1252-2.5-2.5-2.5zm0,1c0.83435,0,1.5,0.66565,1.5,1.5s-0.66565,1.5-1.5,1.5-1.5-0.66565-1.5-1.5,0.66565-1.5,1.5-1.5z"/><path fill="#FFF" stroke-miterlimit="4" stroke-width="0" d="m7.9996,8.0002c0,1.375-0.625,2-2,2s-2-0.625-2-2v-2.9998h1.0001v3c0,0.875,0.125,1,1,1s1-0.125,1-1v-3h1z"/></svg>